<svg width="24" height="24" viewBox="0 0 24 24" fill="none" xmlns="http://www.w3.org/2000/svg">
<g clip-path="url(#clip0_1_599)">
<path d="M13.3982 1.09076C13.0337 -0.364238 10.9682 -0.364238 10.6022 1.09076L10.4957 1.51976C10.4334 1.76907 10.3055 1.99717 10.1253 2.18037C9.94513 2.36358 9.71918 2.49523 9.47093 2.56165C9.22268 2.62807 8.96118 2.62685 8.71357 2.55812C8.46595 2.48939 8.24124 2.35564 8.06275 2.17076L7.75525 1.85426C6.71275 0.775762 4.92325 1.80926 5.33575 3.25076L5.45575 3.67676C5.52626 3.92358 5.52951 4.18476 5.46517 4.43326C5.40083 4.68176 5.27124 4.90854 5.0898 5.09013C4.90837 5.27171 4.6817 5.4015 4.43325 5.46605C4.18481 5.5306 3.92362 5.52757 3.67675 5.45726L3.25075 5.33576C1.81075 4.92326 0.775747 6.71276 1.85425 7.75526L2.17075 8.06276C2.35563 8.24125 2.48937 8.46596 2.55811 8.71358C2.62684 8.9612 2.62806 9.2227 2.56163 9.47095C2.49521 9.71919 2.36356 9.94514 2.18036 10.1253C1.99715 10.3056 1.76906 10.4334 1.51975 10.4958L1.09075 10.6023C-0.364254 10.9668 -0.364254 13.0323 1.09075 13.3983L1.51975 13.5048C1.76906 13.5671 1.99715 13.695 2.18036 13.8752C2.36356 14.0554 2.49521 14.2813 2.56163 14.5296C2.62806 14.7778 2.62684 15.0393 2.55811 15.2869C2.48937 15.5346 2.35563 15.7593 2.17075 15.9378L1.85425 16.2453C0.775747 17.2878 1.80925 19.0773 3.25075 18.6648L3.67675 18.5448C3.92372 18.4741 4.18509 18.4708 4.43377 18.5352C4.68245 18.5996 4.90937 18.7294 5.09101 18.911C5.27265 19.0926 5.40239 19.3196 5.46679 19.5682C5.53119 19.8169 5.52789 20.0783 5.45725 20.3253L5.33575 20.7498C4.92325 22.1898 6.71275 23.2248 7.75525 22.1463L8.06275 21.8298C8.24124 21.6449 8.46595 21.5111 8.71357 21.4424C8.96118 21.3737 9.22268 21.3724 9.47093 21.4389C9.71918 21.5053 9.94513 21.6369 10.1253 21.8202C10.3055 22.0034 10.4334 22.2315 10.4957 22.4808L10.6022 22.9098C10.9667 24.3648 13.0322 24.3648 13.3982 22.9098L13.5047 22.4808C13.5671 22.2315 13.695 22.0034 13.8752 21.8202C14.0554 21.6369 14.2813 21.5053 14.5296 21.4389C14.7778 21.3724 15.0393 21.3737 15.2869 21.4424C15.5345 21.5111 15.7593 21.6449 15.9377 21.8298L16.2452 22.1463C17.2877 23.2248 19.0772 22.1913 18.6647 20.7498L18.5447 20.3238C18.4741 20.0768 18.4708 19.8154 18.5352 19.5667C18.5996 19.3181 18.7293 19.0911 18.911 18.9095C19.0926 18.7279 19.3195 18.5981 19.5682 18.5337C19.8169 18.4693 20.0783 18.4726 20.3252 18.5433L20.7497 18.6648C22.1897 19.0773 23.2247 17.2878 22.1462 16.2453L21.8297 15.9378C21.6449 15.7593 21.5111 15.5346 21.4424 15.2869C21.3737 15.0393 21.3724 14.7778 21.4389 14.5296C21.5053 14.2813 21.6369 14.0554 21.8201 13.8752C22.0033 13.695 22.2314 13.5671 22.4807 13.5048L22.9097 13.3983C24.3647 13.0338 24.3647 10.9683 22.9097 10.6023L22.4807 10.4958C22.2314 10.4334 22.0033 10.3056 21.8201 10.1253C21.6369 9.94514 21.5053 9.71919 21.4389 9.47095C21.3724 9.2227 21.3737 8.9612 21.4424 8.71358C21.5111 8.46596 21.6449 8.24125 21.8297 8.06276L22.1462 7.75526C23.2247 6.71276 22.1912 4.92326 20.7497 5.33576L20.3237 5.45576C20.0769 5.52627 19.8157 5.52953 19.5672 5.46519C19.3187 5.40085 19.092 5.27125 18.9104 5.08982C18.7288 4.90839 18.599 4.68171 18.5345 4.43327C18.4699 4.18482 18.4729 3.92364 18.5432 3.67676L18.6647 3.25076C19.0772 1.81076 17.2877 0.775762 16.2452 1.85426L15.9377 2.17076C15.7593 2.35564 15.5345 2.48939 15.2869 2.55812C15.0393 2.62685 14.7778 2.62807 14.5296 2.56165C14.2813 2.49523 14.0554 2.36358 13.8752 2.18037C13.695 1.99717 13.5671 1.76907 13.5047 1.51976L13.3982 1.09076ZM12.0002 19.4958C11.0069 19.5098 10.0207 19.3263 9.09887 18.9559C8.17706 18.5855 7.33807 18.0355 6.63065 17.3381C5.92323 16.6406 5.36149 15.8094 4.97807 14.893C4.59465 13.9765 4.3972 12.993 4.3972 11.9995C4.3972 11.0061 4.59465 10.0225 4.97807 9.10606C5.36149 8.18959 5.92323 7.35846 6.63065 6.66097C7.33807 5.96349 8.17706 5.41356 9.09887 5.04314C10.0207 4.67272 11.0069 4.48921 12.0002 4.50326C13.9886 4.50326 15.8955 5.29312 17.3014 6.69908C18.7074 8.10504 19.4972 10.0119 19.4972 12.0003C19.4972 13.9886 18.7074 15.8955 17.3014 17.3014C15.8955 18.7074 13.9886 19.4973 12.0002 19.4973V19.4958Z" fill="#767678"/>
</g>
<defs>
<clipPath id="clip0_1_599">
<rect width="24" height="24" fill="white"/>
</clipPath>
</defs>
</svg>
