<svg width="49" height="34" viewBox="0 0 49 34" fill="none" xmlns="http://www.w3.org/2000/svg">
<g clip-path="url(#clip0_1_170)">
<path d="M19.246 23.1695L32.2103 16.607L19.246 9.96573V23.1695ZM24.2014 0.541985C27.2014 0.541985 30.0987 0.58136 32.8934 0.66011C35.688 0.73886 37.7371 0.821985 39.0407 0.909485L40.996 1.01448C41.0139 1.01448 41.1657 1.02761 41.4514 1.05386C41.7371 1.08011 41.9425 1.10636 42.0675 1.13261C42.1925 1.15886 42.4023 1.19823 42.6969 1.25073C42.9916 1.30323 43.246 1.37323 43.4603 1.46073C43.6746 1.54823 43.9246 1.66198 44.2103 1.80198C44.496 1.94198 44.7728 2.11261 45.0407 2.31386C45.3085 2.51511 45.5675 2.74698 45.8175 3.00948C45.9246 3.11448 46.063 3.27636 46.2326 3.49511C46.4023 3.71386 46.6612 4.22573 47.0094 5.03073C47.3576 5.83573 47.5942 6.71948 47.7192 7.68198C47.8621 8.80198 47.9737 9.99636 48.0541 11.2651C48.1344 12.5339 48.1835 13.527 48.2014 14.2445V18.8645C48.2192 21.402 48.0585 23.9395 47.7192 26.477C47.5942 27.4395 47.371 28.3101 47.0496 29.0889C46.7282 29.8676 46.4425 30.4057 46.1925 30.7032L45.8175 31.1495C45.5675 31.412 45.3085 31.6439 45.0407 31.8451C44.7728 32.0464 44.496 32.2126 44.2103 32.3439C43.9246 32.4751 43.6746 32.5845 43.4603 32.672C43.246 32.7595 42.9916 32.8295 42.6969 32.882C42.4023 32.9345 42.188 32.9739 42.0541 33.0001C41.9201 33.0264 41.7148 33.0526 41.438 33.0789C41.1612 33.1051 41.0139 33.1182 40.996 33.1182C36.5139 33.4507 30.9157 33.617 24.2014 33.617C20.505 33.582 17.2951 33.5251 14.5719 33.4464C11.8487 33.3676 10.0585 33.302 9.20138 33.2495L7.88888 33.1445L6.9246 33.0395C6.28174 32.952 5.79513 32.8645 5.46478 32.777C5.13442 32.6895 4.67906 32.5057 4.0987 32.2257C3.51835 31.9457 3.01388 31.587 2.58531 31.1495C2.47817 31.0445 2.33978 30.8826 2.17013 30.6639C2.00049 30.4451 1.74156 29.9332 1.39335 29.1282C1.04513 28.3232 0.808525 27.4395 0.683525 26.477C0.540668 25.357 0.429061 24.1626 0.348703 22.8939C0.268346 21.6251 0.219239 20.632 0.201382 19.9145V15.2945C0.183525 12.757 0.344239 10.2195 0.683525 7.68198C0.808525 6.71948 1.03174 5.84886 1.35317 5.07011C1.6746 4.29136 1.96031 3.75323 2.21031 3.45573L2.58531 3.00948C2.83531 2.74698 3.09424 2.51511 3.3621 2.31386C3.62995 2.11261 3.90674 1.94198 4.19245 1.80198C4.47817 1.66198 4.72817 1.54823 4.94245 1.46073C5.15674 1.37323 5.4112 1.30323 5.70585 1.25073C6.00049 1.19823 6.21031 1.15886 6.33531 1.13261C6.46031 1.10636 6.66567 1.08011 6.95138 1.05386C7.2371 1.02761 7.38888 1.01448 7.40674 1.01448C11.8889 0.699485 17.4871 0.541985 24.2014 0.541985Z" fill="#B1081A"/>
</g>
<defs>
<clipPath id="clip0_1_170">
<rect width="48" height="33.6" fill="white" transform="translate(0.200043 4.95911e-05)"/>
</clipPath>
</defs>
</svg>
