<svg width="49" height="35" viewBox="0 0 49 35" fill="none" xmlns="http://www.w3.org/2000/svg">
<g clip-path="url(#clip0_1_160)">
<path d="M19.446 23.9693L32.4103 17.4068L19.446 10.7655V23.9693ZM24.4014 1.3418C27.4014 1.3418 30.2987 1.38117 33.0934 1.45992C35.888 1.53867 37.9371 1.6218 39.2407 1.7093L41.196 1.8143C41.2139 1.8143 41.3657 1.82742 41.6514 1.85367C41.9371 1.87992 42.1425 1.90617 42.2675 1.93242C42.3925 1.95867 42.6023 1.99805 42.8969 2.05055C43.1916 2.10305 43.446 2.17305 43.6603 2.26055C43.8746 2.34805 44.1246 2.4618 44.4103 2.6018C44.696 2.7418 44.9728 2.91242 45.2407 3.11367C45.5085 3.31492 45.7675 3.5468 46.0175 3.8093C46.1246 3.9143 46.263 4.07617 46.4326 4.29492C46.6023 4.51367 46.8612 5.02555 47.2094 5.83055C47.5576 6.63555 47.7943 7.5193 47.9193 8.4818C48.0621 9.6018 48.1737 10.7962 48.2541 12.0649C48.3344 13.3337 48.3835 14.3268 48.4014 15.0443V19.6643C48.4193 22.2018 48.2585 24.7393 47.9193 27.2768C47.7943 28.2393 47.571 29.1099 47.2496 29.8887C46.9282 30.6674 46.6425 31.2055 46.3925 31.503L46.0175 31.9493C45.7675 32.2118 45.5085 32.4437 45.2407 32.6449C44.9728 32.8462 44.696 33.0124 44.4103 33.1437C44.1246 33.2749 43.8746 33.3843 43.6603 33.4718C43.446 33.5593 43.1916 33.6293 42.8969 33.6818C42.6023 33.7343 42.388 33.7737 42.2541 33.7999C42.1201 33.8262 41.9148 33.8524 41.638 33.8787C41.3612 33.9049 41.2139 33.918 41.196 33.918C36.7139 34.2505 31.1157 34.4168 24.4014 34.4168C20.705 34.3818 17.4951 34.3249 14.7719 34.2462C12.0487 34.1674 10.2585 34.1018 9.40139 34.0493L8.08889 33.9443L7.12461 33.8393C6.48175 33.7518 5.99514 33.6643 5.66479 33.5768C5.33443 33.4893 4.87907 33.3055 4.29872 33.0255C3.71836 32.7455 3.21389 32.3868 2.78532 31.9493C2.67818 31.8443 2.53979 31.6824 2.37014 31.4637C2.2005 31.2449 1.94157 30.733 1.59336 29.928C1.24514 29.123 1.00854 28.2393 0.883537 27.2768C0.74068 26.1568 0.629073 24.9624 0.548716 23.6937C0.468359 22.4249 0.419251 21.4318 0.401394 20.7143V16.0943C0.383537 13.5568 0.544251 11.0193 0.883537 8.4818C1.00854 7.5193 1.23175 6.64867 1.55318 5.86992C1.87461 5.09117 2.16032 4.55305 2.41032 4.25555L2.78532 3.8093C3.03532 3.5468 3.29425 3.31492 3.56211 3.11367C3.82997 2.91242 4.10675 2.7418 4.39247 2.6018C4.67818 2.4618 4.92818 2.34805 5.14247 2.26055C5.35675 2.17305 5.61122 2.10305 5.90586 2.05055C6.2005 1.99805 6.41032 1.95867 6.53532 1.93242C6.66032 1.90617 6.86568 1.87992 7.15139 1.85367C7.43711 1.82742 7.58889 1.8143 7.60675 1.8143C12.0889 1.4993 17.6871 1.3418 24.4014 1.3418Z" fill="#B1081A"/>
</g>
<defs>
<clipPath id="clip0_1_160">
<rect width="48" height="33.6" fill="white" transform="translate(0.400055 0.799866)"/>
</clipPath>
</defs>
</svg>
