<svg width="48" height="35" viewBox="0 0 48 35" fill="none" xmlns="http://www.w3.org/2000/svg">
<g clip-path="url(#clip0_1_151)">
<path d="M19.046 23.9693L32.0103 17.4068L19.046 10.7655V23.9693ZM24.0014 1.3418C27.0014 1.3418 29.8987 1.38117 32.6934 1.45992C35.488 1.53867 37.5371 1.6218 38.8407 1.7093L40.796 1.8143C40.8139 1.8143 40.9657 1.82742 41.2514 1.85367C41.5371 1.87992 41.7425 1.90617 41.8675 1.93242C41.9925 1.95867 42.2023 1.99805 42.4969 2.05055C42.7916 2.10305 43.046 2.17305 43.2603 2.26055C43.4746 2.34805 43.7246 2.4618 44.0103 2.6018C44.296 2.7418 44.5728 2.91242 44.8407 3.11367C45.1085 3.31492 45.3675 3.5468 45.6175 3.8093C45.7246 3.9143 45.863 4.07617 46.0326 4.29492C46.2023 4.51367 46.4612 5.02555 46.8094 5.83055C47.1576 6.63555 47.3942 7.5193 47.5192 8.4818C47.6621 9.6018 47.7737 10.7962 47.8541 12.0649C47.9344 13.3337 47.9835 14.3268 48.0014 15.0443V19.6643C48.0192 22.2018 47.8585 24.7393 47.5192 27.2768C47.3942 28.2393 47.171 29.1099 46.8496 29.8887C46.5282 30.6674 46.2425 31.2055 45.9925 31.503L45.6175 31.9493C45.3675 32.2118 45.1085 32.4437 44.8407 32.6449C44.5728 32.8462 44.296 33.0124 44.0103 33.1437C43.7246 33.2749 43.4746 33.3843 43.2603 33.4718C43.046 33.5593 42.7916 33.6293 42.4969 33.6818C42.2023 33.7343 41.988 33.7737 41.8541 33.7999C41.7201 33.8262 41.5148 33.8524 41.238 33.8787C40.9612 33.9049 40.8139 33.918 40.796 33.918C36.3139 34.2505 30.7157 34.4168 24.0014 34.4168C20.305 34.3818 17.0951 34.3249 14.3719 34.2462C11.6487 34.1674 9.85853 34.1018 9.00139 34.0493L7.68889 33.9443L6.7246 33.8393C6.08174 33.7518 5.59514 33.6643 5.26478 33.5768C4.93442 33.4893 4.47906 33.3055 3.89871 33.0255C3.31835 32.7455 2.81389 32.3868 2.38531 31.9493C2.27817 31.8443 2.13978 31.6824 1.97014 31.4637C1.80049 31.2449 1.54156 30.733 1.19335 29.928C0.845135 29.123 0.608528 28.2393 0.483528 27.2768C0.340671 26.1568 0.229064 24.9624 0.148707 23.6937C0.0683494 22.4249 0.0192422 21.4318 0.00138506 20.7143V16.0943C-0.0164721 13.5568 0.144242 11.0193 0.483528 8.4818C0.608528 7.5193 0.831742 6.64867 1.15317 5.86992C1.4746 5.09117 1.76031 4.55305 2.01031 4.25555L2.38531 3.8093C2.63531 3.5468 2.89424 3.31492 3.1621 3.11367C3.42996 2.91242 3.70674 2.7418 3.99246 2.6018C4.27817 2.4618 4.52817 2.34805 4.74246 2.26055C4.95674 2.17305 5.21121 2.10305 5.50585 2.05055C5.80049 1.99805 6.01031 1.95867 6.13531 1.93242C6.26031 1.90617 6.46567 1.87992 6.75139 1.85367C7.0371 1.82742 7.18889 1.8143 7.20674 1.8143C11.6889 1.4993 17.2871 1.3418 24.0014 1.3418Z" fill="#B1081A"/>
</g>
<defs>
<clipPath id="clip0_1_151">
<rect width="48" height="33.6" fill="white" transform="translate(4.57764e-05 0.799866)"/>
</clipPath>
</defs>
</svg>
