<svg width="49" height="34" viewBox="0 0 49 34" fill="none" xmlns="http://www.w3.org/2000/svg">
<g clip-path="url(#clip0_1_197)">
<path d="M19.446 23.1695L32.4103 16.607L19.446 9.96573V23.1695ZM24.4014 0.541985C27.4014 0.541985 30.2987 0.58136 33.0934 0.66011C35.888 0.73886 37.9371 0.821985 39.2407 0.909485L41.196 1.01448C41.2139 1.01448 41.3657 1.02761 41.6514 1.05386C41.9371 1.08011 42.1425 1.10636 42.2675 1.13261C42.3925 1.15886 42.6023 1.19823 42.8969 1.25073C43.1916 1.30323 43.446 1.37323 43.6603 1.46073C43.8746 1.54823 44.1246 1.66198 44.4103 1.80198C44.696 1.94198 44.9728 2.11261 45.2407 2.31386C45.5085 2.51511 45.7675 2.74698 46.0175 3.00948C46.1246 3.11448 46.263 3.27636 46.4326 3.49511C46.6023 3.71386 46.8612 4.22573 47.2094 5.03073C47.5576 5.83573 47.7943 6.71948 47.9193 7.68198C48.0621 8.80198 48.1737 9.99636 48.2541 11.2651C48.3344 12.5339 48.3835 13.527 48.4014 14.2445V18.8645C48.4193 21.402 48.2585 23.9395 47.9193 26.477C47.7943 27.4395 47.571 28.3101 47.2496 29.0889C46.9282 29.8676 46.6425 30.4057 46.3925 30.7032L46.0175 31.1495C45.7675 31.412 45.5085 31.6439 45.2407 31.8451C44.9728 32.0464 44.696 32.2126 44.4103 32.3439C44.1246 32.4751 43.8746 32.5845 43.6603 32.672C43.446 32.7595 43.1916 32.8295 42.8969 32.882C42.6023 32.9345 42.388 32.9739 42.2541 33.0001C42.1201 33.0264 41.9148 33.0526 41.638 33.0789C41.3612 33.1051 41.2139 33.1182 41.196 33.1182C36.7139 33.4507 31.1157 33.617 24.4014 33.617C20.705 33.582 17.4951 33.5251 14.7719 33.4464C12.0487 33.3676 10.2585 33.302 9.40139 33.2495L8.08889 33.1445L7.12461 33.0395C6.48175 32.952 5.99514 32.8645 5.66479 32.777C5.33443 32.6895 4.87907 32.5057 4.29872 32.2257C3.71836 31.9457 3.21389 31.587 2.78532 31.1495C2.67818 31.0445 2.53979 30.8826 2.37014 30.6639C2.2005 30.4451 1.94157 29.9332 1.59336 29.1282C1.24514 28.3232 1.00854 27.4395 0.883537 26.477C0.74068 25.357 0.629073 24.1626 0.548716 22.8939C0.468359 21.6251 0.419251 20.632 0.401394 19.9145V15.2945C0.383537 12.757 0.544251 10.2195 0.883537 7.68198C1.00854 6.71948 1.23175 5.84886 1.55318 5.07011C1.87461 4.29136 2.16032 3.75323 2.41032 3.45573L2.78532 3.00948C3.03532 2.74698 3.29425 2.51511 3.56211 2.31386C3.82997 2.11261 4.10675 1.94198 4.39247 1.80198C4.67818 1.66198 4.92818 1.54823 5.14247 1.46073C5.35675 1.37323 5.61122 1.30323 5.90586 1.25073C6.2005 1.19823 6.41032 1.15886 6.53532 1.13261C6.66032 1.10636 6.86568 1.08011 7.15139 1.05386C7.43711 1.02761 7.58889 1.01448 7.60675 1.01448C12.0889 0.699485 17.6871 0.541985 24.4014 0.541985Z" fill="#B1081A"/>
</g>
<defs>
<clipPath id="clip0_1_197">
<rect width="48" height="33.6" fill="white" transform="translate(0.400055 4.95911e-05)"/>
</clipPath>
</defs>
</svg>
