<svg width="49" height="35" viewBox="0 0 49 35" fill="none" xmlns="http://www.w3.org/2000/svg">
<g clip-path="url(#clip0_1_133)">
<path d="M19.246 23.9693L32.2103 17.4068L19.246 10.7655V23.9693ZM24.2014 1.3418C27.2014 1.3418 30.0987 1.38117 32.8934 1.45992C35.688 1.53867 37.7371 1.6218 39.0407 1.7093L40.996 1.8143C41.0139 1.8143 41.1657 1.82742 41.4514 1.85367C41.7371 1.87992 41.9425 1.90617 42.0675 1.93242C42.1925 1.95867 42.4023 1.99805 42.6969 2.05055C42.9916 2.10305 43.246 2.17305 43.4603 2.26055C43.6746 2.34805 43.9246 2.4618 44.2103 2.6018C44.496 2.7418 44.7728 2.91242 45.0407 3.11367C45.3085 3.31492 45.5675 3.5468 45.8175 3.8093C45.9246 3.9143 46.063 4.07617 46.2326 4.29492C46.4023 4.51367 46.6612 5.02555 47.0094 5.83055C47.3576 6.63555 47.5942 7.5193 47.7192 8.4818C47.8621 9.6018 47.9737 10.7962 48.0541 12.0649C48.1344 13.3337 48.1835 14.3268 48.2014 15.0443V19.6643C48.2192 22.2018 48.0585 24.7393 47.7192 27.2768C47.5942 28.2393 47.371 29.1099 47.0496 29.8887C46.7282 30.6674 46.4425 31.2055 46.1925 31.503L45.8175 31.9493C45.5675 32.2118 45.3085 32.4437 45.0407 32.6449C44.7728 32.8462 44.496 33.0124 44.2103 33.1437C43.9246 33.2749 43.6746 33.3843 43.4603 33.4718C43.246 33.5593 42.9916 33.6293 42.6969 33.6818C42.4023 33.7343 42.188 33.7737 42.0541 33.7999C41.9201 33.8262 41.7148 33.8524 41.438 33.8787C41.1612 33.9049 41.0139 33.918 40.996 33.918C36.5139 34.2505 30.9157 34.4168 24.2014 34.4168C20.505 34.3818 17.2951 34.3249 14.5719 34.2462C11.8487 34.1674 10.0585 34.1018 9.20138 34.0493L7.88888 33.9443L6.9246 33.8393C6.28174 33.7518 5.79513 33.6643 5.46478 33.5768C5.13442 33.4893 4.67906 33.3055 4.0987 33.0255C3.51835 32.7455 3.01388 32.3868 2.58531 31.9493C2.47817 31.8443 2.33978 31.6824 2.17013 31.4637C2.00049 31.2449 1.74156 30.733 1.39335 29.928C1.04513 29.123 0.808525 28.2393 0.683525 27.2768C0.540668 26.1568 0.429061 24.9624 0.348703 23.6937C0.268346 22.4249 0.219239 21.4318 0.201382 20.7143V16.0943C0.183525 13.5568 0.344239 11.0193 0.683525 8.4818C0.808525 7.5193 1.03174 6.64867 1.35317 5.86992C1.6746 5.09117 1.96031 4.55305 2.21031 4.25555L2.58531 3.8093C2.83531 3.5468 3.09424 3.31492 3.3621 3.11367C3.62995 2.91242 3.90674 2.7418 4.19245 2.6018C4.47817 2.4618 4.72817 2.34805 4.94245 2.26055C5.15674 2.17305 5.4112 2.10305 5.70585 2.05055C6.00049 1.99805 6.21031 1.95867 6.33531 1.93242C6.46031 1.90617 6.66567 1.87992 6.95138 1.85367C7.2371 1.82742 7.38888 1.8143 7.40674 1.8143C11.8889 1.4993 17.4871 1.3418 24.2014 1.3418Z" fill="#B1081A"/>
</g>
<defs>
<clipPath id="clip0_1_133">
<rect width="48" height="33.6" fill="white" transform="translate(0.200043 0.799866)"/>
</clipPath>
</defs>
</svg>
