<svg width="49" height="34" viewBox="0 0 49 34" fill="none" xmlns="http://www.w3.org/2000/svg">
<g clip-path="url(#clip0_1_179)">
<path d="M19.646 23.1695L32.6103 16.607L19.646 9.96573V23.1695ZM24.6014 0.541985C27.6014 0.541985 30.4987 0.58136 33.2934 0.66011C36.088 0.73886 38.1371 0.821985 39.4407 0.909485L41.396 1.01448C41.4139 1.01448 41.5657 1.02761 41.8514 1.05386C42.1371 1.08011 42.3425 1.10636 42.4675 1.13261C42.5925 1.15886 42.8023 1.19823 43.0969 1.25073C43.3916 1.30323 43.646 1.37323 43.8603 1.46073C44.0746 1.54823 44.3246 1.66198 44.6103 1.80198C44.896 1.94198 45.1728 2.11261 45.4407 2.31386C45.7085 2.51511 45.9675 2.74698 46.2175 3.00948C46.3246 3.11448 46.463 3.27636 46.6326 3.49511C46.8023 3.71386 47.0612 4.22573 47.4094 5.03073C47.7576 5.83573 47.9943 6.71948 48.1193 7.68198C48.2621 8.80198 48.3737 9.99636 48.4541 11.2651C48.5344 12.5339 48.5835 13.527 48.6014 14.2445V18.8645C48.6193 21.402 48.4585 23.9395 48.1193 26.477C47.9943 27.4395 47.771 28.3101 47.4496 29.0889C47.1282 29.8676 46.8425 30.4057 46.5925 30.7032L46.2175 31.1495C45.9675 31.412 45.7085 31.6439 45.4407 31.8451C45.1728 32.0464 44.896 32.2126 44.6103 32.3439C44.3246 32.4751 44.0746 32.5845 43.8603 32.672C43.646 32.7595 43.3916 32.8295 43.0969 32.882C42.8023 32.9345 42.588 32.9739 42.4541 33.0001C42.3201 33.0264 42.1148 33.0526 41.838 33.0789C41.5612 33.1051 41.4139 33.1182 41.396 33.1182C36.9139 33.4507 31.3157 33.617 24.6014 33.617C20.905 33.582 17.6951 33.5251 14.9719 33.4464C12.2487 33.3676 10.4585 33.302 9.60139 33.2495L8.28889 33.1445L7.32461 33.0395C6.68175 32.952 6.19514 32.8645 5.86478 32.777C5.53443 32.6895 5.07907 32.5057 4.49871 32.2257C3.91836 31.9457 3.41389 31.587 2.98532 31.1495C2.87818 31.0445 2.73978 30.8826 2.57014 30.6639C2.4005 30.4451 2.14157 29.9332 1.79336 29.1282C1.44514 28.3232 1.20853 27.4395 1.08353 26.477C0.940677 25.357 0.82907 24.1626 0.748713 22.8939C0.668355 21.6251 0.619248 20.632 0.601391 19.9145V15.2945C0.583534 12.757 0.744248 10.2195 1.08353 7.68198C1.20853 6.71948 1.43175 5.84886 1.75318 5.07011C2.07461 4.29136 2.36032 3.75323 2.61032 3.45573L2.98532 3.00948C3.23532 2.74698 3.49425 2.51511 3.76211 2.31386C4.02996 2.11261 4.30675 1.94198 4.59246 1.80198C4.87818 1.66198 5.12818 1.54823 5.34246 1.46073C5.55675 1.37323 5.81121 1.30323 6.10586 1.25073C6.4005 1.19823 6.61032 1.15886 6.73532 1.13261C6.86032 1.10636 7.06568 1.08011 7.35139 1.05386C7.63711 1.02761 7.78889 1.01448 7.80675 1.01448C12.2889 0.699485 17.8871 0.541985 24.6014 0.541985Z" fill="#B1081A"/>
</g>
<defs>
<clipPath id="clip0_1_179">
<rect width="48" height="33.6" fill="white" transform="translate(0.600052 4.95911e-05)"/>
</clipPath>
</defs>
</svg>
