<svg width="49" height="35" viewBox="0 0 49 35" fill="none" xmlns="http://www.w3.org/2000/svg">
<g clip-path="url(#clip0_1_142)">
<path d="M19.646 23.9693L32.6103 17.4068L19.646 10.7655V23.9693ZM24.6014 1.3418C27.6014 1.3418 30.4987 1.38117 33.2934 1.45992C36.088 1.53867 38.1371 1.6218 39.4407 1.7093L41.396 1.8143C41.4139 1.8143 41.5657 1.82742 41.8514 1.85367C42.1371 1.87992 42.3425 1.90617 42.4675 1.93242C42.5925 1.95867 42.8023 1.99805 43.0969 2.05055C43.3916 2.10305 43.646 2.17305 43.8603 2.26055C44.0746 2.34805 44.3246 2.4618 44.6103 2.6018C44.896 2.7418 45.1728 2.91242 45.4407 3.11367C45.7085 3.31492 45.9675 3.5468 46.2175 3.8093C46.3246 3.9143 46.463 4.07617 46.6326 4.29492C46.8023 4.51367 47.0612 5.02555 47.4094 5.83055C47.7576 6.63555 47.9943 7.5193 48.1193 8.4818C48.2621 9.6018 48.3737 10.7962 48.4541 12.0649C48.5344 13.3337 48.5835 14.3268 48.6014 15.0443V19.6643C48.6193 22.2018 48.4585 24.7393 48.1193 27.2768C47.9943 28.2393 47.771 29.1099 47.4496 29.8887C47.1282 30.6674 46.8425 31.2055 46.5925 31.503L46.2175 31.9493C45.9675 32.2118 45.7085 32.4437 45.4407 32.6449C45.1728 32.8462 44.896 33.0124 44.6103 33.1437C44.3246 33.2749 44.0746 33.3843 43.8603 33.4718C43.646 33.5593 43.3916 33.6293 43.0969 33.6818C42.8023 33.7343 42.588 33.7737 42.4541 33.7999C42.3201 33.8262 42.1148 33.8524 41.838 33.8787C41.5612 33.9049 41.4139 33.918 41.396 33.918C36.9139 34.2505 31.3157 34.4168 24.6014 34.4168C20.905 34.3818 17.6951 34.3249 14.9719 34.2462C12.2487 34.1674 10.4585 34.1018 9.60139 34.0493L8.28889 33.9443L7.32461 33.8393C6.68175 33.7518 6.19514 33.6643 5.86478 33.5768C5.53443 33.4893 5.07907 33.3055 4.49871 33.0255C3.91836 32.7455 3.41389 32.3868 2.98532 31.9493C2.87818 31.8443 2.73978 31.6824 2.57014 31.4637C2.4005 31.2449 2.14157 30.733 1.79336 29.928C1.44514 29.123 1.20853 28.2393 1.08353 27.2768C0.940677 26.1568 0.82907 24.9624 0.748713 23.6937C0.668355 22.4249 0.619248 21.4318 0.601391 20.7143V16.0943C0.583534 13.5568 0.744248 11.0193 1.08353 8.4818C1.20853 7.5193 1.43175 6.64867 1.75318 5.86992C2.07461 5.09117 2.36032 4.55305 2.61032 4.25555L2.98532 3.8093C3.23532 3.5468 3.49425 3.31492 3.76211 3.11367C4.02996 2.91242 4.30675 2.7418 4.59246 2.6018C4.87818 2.4618 5.12818 2.34805 5.34246 2.26055C5.55675 2.17305 5.81121 2.10305 6.10586 2.05055C6.4005 1.99805 6.61032 1.95867 6.73532 1.93242C6.86032 1.90617 7.06568 1.87992 7.35139 1.85367C7.63711 1.82742 7.78889 1.8143 7.80675 1.8143C12.2889 1.4993 17.8871 1.3418 24.6014 1.3418Z" fill="#B1081A"/>
</g>
<defs>
<clipPath id="clip0_1_142">
<rect width="48" height="33.6" fill="white" transform="translate(0.600052 0.799866)"/>
</clipPath>
</defs>
</svg>
