<svg width="48" height="34" viewBox="0 0 48 34" fill="none" xmlns="http://www.w3.org/2000/svg">
<g clip-path="url(#clip0_1_188)">
<path d="M19.046 23.1695L32.0103 16.607L19.046 9.96573V23.1695ZM24.0014 0.541985C27.0014 0.541985 29.8987 0.58136 32.6934 0.66011C35.488 0.73886 37.5371 0.821985 38.8407 0.909485L40.796 1.01448C40.8139 1.01448 40.9657 1.02761 41.2514 1.05386C41.5371 1.08011 41.7425 1.10636 41.8675 1.13261C41.9925 1.15886 42.2023 1.19823 42.4969 1.25073C42.7916 1.30323 43.046 1.37323 43.2603 1.46073C43.4746 1.54823 43.7246 1.66198 44.0103 1.80198C44.296 1.94198 44.5728 2.11261 44.8407 2.31386C45.1085 2.51511 45.3675 2.74698 45.6175 3.00948C45.7246 3.11448 45.863 3.27636 46.0326 3.49511C46.2023 3.71386 46.4612 4.22573 46.8094 5.03073C47.1576 5.83573 47.3942 6.71948 47.5192 7.68198C47.6621 8.80198 47.7737 9.99636 47.8541 11.2651C47.9344 12.5339 47.9835 13.527 48.0014 14.2445V18.8645C48.0192 21.402 47.8585 23.9395 47.5192 26.477C47.3942 27.4395 47.171 28.3101 46.8496 29.0889C46.5282 29.8676 46.2425 30.4057 45.9925 30.7032L45.6175 31.1495C45.3675 31.412 45.1085 31.6439 44.8407 31.8451C44.5728 32.0464 44.296 32.2126 44.0103 32.3439C43.7246 32.4751 43.4746 32.5845 43.2603 32.672C43.046 32.7595 42.7916 32.8295 42.4969 32.882C42.2023 32.9345 41.988 32.9739 41.8541 33.0001C41.7201 33.0264 41.5148 33.0526 41.238 33.0789C40.9612 33.1051 40.8139 33.1182 40.796 33.1182C36.3139 33.4507 30.7157 33.617 24.0014 33.617C20.305 33.582 17.0951 33.5251 14.3719 33.4464C11.6487 33.3676 9.85853 33.302 9.00139 33.2495L7.68889 33.1445L6.7246 33.0395C6.08174 32.952 5.59514 32.8645 5.26478 32.777C4.93442 32.6895 4.47906 32.5057 3.89871 32.2257C3.31835 31.9457 2.81389 31.587 2.38531 31.1495C2.27817 31.0445 2.13978 30.8826 1.97014 30.6639C1.80049 30.4451 1.54156 29.9332 1.19335 29.1282C0.845135 28.3232 0.608528 27.4395 0.483528 26.477C0.340671 25.357 0.229064 24.1626 0.148707 22.8939C0.0683494 21.6251 0.0192422 20.632 0.00138506 19.9145V15.2945C-0.0164721 12.757 0.144242 10.2195 0.483528 7.68198C0.608528 6.71948 0.831742 5.84886 1.15317 5.07011C1.4746 4.29136 1.76031 3.75323 2.01031 3.45573L2.38531 3.00948C2.63531 2.74698 2.89424 2.51511 3.1621 2.31386C3.42996 2.11261 3.70674 1.94198 3.99246 1.80198C4.27817 1.66198 4.52817 1.54823 4.74246 1.46073C4.95674 1.37323 5.21121 1.30323 5.50585 1.25073C5.80049 1.19823 6.01031 1.15886 6.13531 1.13261C6.26031 1.10636 6.46567 1.08011 6.75139 1.05386C7.0371 1.02761 7.18889 1.01448 7.20674 1.01448C11.6889 0.699485 17.2871 0.541985 24.0014 0.541985Z" fill="#B1081A"/>
</g>
<defs>
<clipPath id="clip0_1_188">
<rect width="48" height="33.6" fill="white"/>
</clipPath>
</defs>
</svg>
