<svg width="64" height="64" viewBox="0 0 64 64" fill="none" xmlns="http://www.w3.org/2000/svg">
<circle cx="32" cy="32" r="32" fill="#1B1A1A"/>
<path d="M47.318 22.4839C46.1733 22.9903 44.9594 23.323 43.7165 23.4709C45.0261 22.6866 46.0059 21.453 46.4735 19.9999C45.2435 20.7319 43.895 21.2449 42.491 21.5224C41.5469 20.5123 40.2955 19.8423 38.9314 19.6168C37.5673 19.3912 36.1669 19.6226 34.9479 20.2751C33.7289 20.9275 32.7596 21.9644 32.1907 23.2246C31.6218 24.4847 31.4851 25.8976 31.802 27.2434C29.3074 27.1186 26.867 26.4705 24.6391 25.3412C22.4113 24.2119 20.4459 22.6266 18.8705 20.6884C18.3129 21.6461 18.0199 22.7347 18.0215 23.8429C18.0215 26.0179 19.13 27.9394 20.8115 29.0644C19.8155 29.033 18.8415 28.764 17.9705 28.2799V28.3564C17.9705 29.8052 18.4716 31.2094 19.3888 32.3309C20.306 33.4524 21.583 34.2221 23.003 34.5094C22.0785 34.7602 21.1089 34.7971 20.168 34.6174C20.5684 35.8645 21.3488 36.9551 22.4 37.7365C23.4512 38.5179 24.7204 38.9509 26.03 38.9749C24.7285 39.9971 23.2383 40.7527 21.6446 41.1984C20.0509 41.6442 18.3849 41.7715 16.742 41.5729C19.6096 43.417 22.9477 44.396 26.357 44.3929C37.898 44.3929 44.207 34.8334 44.207 26.5429C44.207 26.2729 44.201 25.9999 44.189 25.7314C45.4166 24.8439 46.4762 23.7432 47.318 22.4839Z" fill="#828282"/>
</svg>
