<svg width="64" height="64" viewBox="0 0 64 64" fill="none" xmlns="http://www.w3.org/2000/svg">
<circle cx="32" cy="32" r="32" fill="#1B1A1A"/>
<path d="M32 27.3137C29.4195 27.3137 27.3137 29.4196 27.3137 32C27.3137 34.5805 29.4195 36.6863 32 36.6863C34.5805 36.6863 36.6863 34.5805 36.6863 32C36.6863 29.4196 34.5805 27.3137 32 27.3137ZM46.0555 32C46.0555 30.0594 46.073 28.1363 45.964 26.1992C45.8551 23.9492 45.3418 21.9524 43.6965 20.3071C42.0476 18.6582 40.0543 18.1485 37.8043 18.0395C35.8637 17.9305 33.9406 17.9481 32.0035 17.9481C30.0629 17.9481 28.1398 17.9305 26.2027 18.0395C23.9527 18.1485 21.9558 18.6617 20.3105 20.3071C18.6617 21.9559 18.1519 23.9492 18.043 26.1992C17.934 28.1399 17.9515 30.0629 17.9515 32C17.9515 33.9371 17.934 35.8637 18.043 37.8008C18.1519 40.0508 18.6652 42.0477 20.3105 43.693C21.9594 45.3418 23.9527 45.8516 26.2027 45.9606C28.1433 46.0696 30.0664 46.052 32.0035 46.052C33.9441 46.052 35.8672 46.0696 37.8043 45.9606C40.0543 45.8516 42.0512 45.3383 43.6965 43.693C45.3453 42.0442 45.8551 40.0508 45.964 37.8008C46.0765 35.8637 46.0555 33.9406 46.0555 32ZM32 39.2106C28.0097 39.2106 24.7894 35.9903 24.7894 32C24.7894 28.0098 28.0097 24.7895 32 24.7895C35.9902 24.7895 39.2105 28.0098 39.2105 32C39.2105 35.9903 35.9902 39.2106 32 39.2106ZM39.5058 26.1781C38.5742 26.1781 37.8219 25.4258 37.8219 24.4942C37.8219 23.5625 38.5742 22.8102 39.5058 22.8102C40.4375 22.8102 41.1898 23.5625 41.1898 24.4942C41.1901 24.7154 41.1467 24.9345 41.0622 25.1389C40.9777 25.3434 40.8536 25.5291 40.6972 25.6855C40.5408 25.842 40.355 25.966 40.1506 26.0505C39.9462 26.1351 39.7271 26.1784 39.5058 26.1781Z" fill="#828282"/>
</svg>
