<svg width="64" height="64" viewBox="0 0 64 64" fill="none" xmlns="http://www.w3.org/2000/svg">
<circle cx="32" cy="32" r="32" fill="#1B1A1A"/>
<path d="M47 26.912V39.125C47.0001 40.3702 46.5237 41.5682 45.6685 42.4733C44.8133 43.3785 43.6442 43.922 42.401 43.9925L42.125 44H21.875C20.6298 44.0001 19.4318 43.5237 18.5267 42.6685C17.6216 41.8133 17.078 40.6442 17.0075 39.401L17 39.125V26.912L31.478 34.496C31.6391 34.5804 31.8182 34.6244 32 34.6244C32.1818 34.6244 32.3609 34.5804 32.522 34.496L47 26.912ZM21.875 20H42.125C43.3334 19.9999 44.4987 20.4485 45.3951 21.2589C46.2914 22.0693 46.8548 23.1837 46.976 24.386L32 32.231L17.024 24.386C17.1403 23.2315 17.6646 22.1563 18.5026 21.3537C19.3407 20.5511 20.4375 20.0738 21.596 20.0075L21.875 20Z" fill="#828282"/>
</svg>
