<svg width="1140" height="187" viewBox="0 0 1140 187" fill="none" xmlns="http://www.w3.org/2000/svg">
<rect width="1140" height="187" fill="#231F1E" fill-opacity="0.7"/>
<path d="M1140 184.049C1037.73 186.329 944.591 186.329 703.543 186.329C462.494 186.329 387.926 186.329 267.086 184.049C267.086 94.105 462.494 21.1914 703.543 21.1914C944.591 21.1914 1140 94.105 1140 184.049Z" fill="#084572" fill-opacity="0.7"/>
<path d="M1103.76 122.855C1124.51 141.163 1136.01 160.856 1137 181.183C1035.9 183.397 942.295 183.397 703.543 183.397C464.454 183.397 389.175 183.397 270.087 181.173C271.079 160.85 282.575 141.16 303.324 122.855C325.046 103.693 356.646 86.3019 395.946 71.6376C474.524 42.3173 583.276 24.1228 703.543 24.1228C823.81 24.1228 932.561 42.3173 1011.14 71.6376C1050.44 86.3019 1082.04 103.693 1103.76 122.855Z" stroke="#084572" stroke-opacity="0.7" stroke-width="5.86286"/>
<path d="M1136.74 186.654C1080.39 186.654 944.591 186.654 703.543 186.654C462.494 186.654 371.314 186.654 268.389 186.654C268.389 96.7108 462.494 43.9915 703.543 43.9915C944.591 43.9915 1136.74 96.7108 1136.74 186.654Z" fill="#4791CE" fill-opacity="0.7"/>
<path d="M271.393 183.723C272.397 163.572 283.77 145.162 304.316 128.706C325.88 111.436 357.289 96.5503 396.442 84.3937C474.718 60.0893 583.186 46.9229 703.543 46.9229C823.9 46.9229 931.877 60.0894 1009.66 84.3921C1048.57 96.5478 1079.73 111.432 1101.11 128.699C1121.48 145.15 1132.75 163.561 1133.74 183.723H1133.7H1133.35H1133H1132.65H1132.3H1131.94H1131.59H1131.23H1130.87H1130.5H1130.14H1129.77H1129.41H1129.04H1128.67H1128.29H1127.92H1127.54H1127.16H1126.78H1126.4H1126.01H1125.63H1125.24H1124.85H1124.46H1124.06H1123.67H1123.27H1122.87H1122.47H1122.07H1121.66H1121.26H1120.85H1120.44H1120.03H1119.61H1119.2H1118.78H1118.36H1117.94H1117.51H1117.09H1116.66H1116.23H1115.8H1115.37H1114.93H1114.5H1114.06H1113.62H1113.18H1112.73H1112.29H1111.84H1111.39H1110.94H1110.48H1110.03H1109.57H1109.11H1108.65H1108.19H1107.72H1107.25H1106.78H1106.31H1105.84H1105.37H1104.89H1104.41H1103.93H1103.45H1102.97H1102.48H1101.99H1101.5H1101.01H1100.52H1100.02H1099.52H1099.02H1098.52H1098.02H1097.51H1097.01H1096.5H1095.99H1095.47H1094.96H1094.44H1093.92H1093.4H1092.88H1092.35H1091.83H1091.3H1090.77H1090.24H1089.7H1089.17H1088.63H1088.09H1087.55H1087H1086.46H1085.91H1085.36H1084.81H1084.25H1083.7H1083.14H1082.58H1082.02H1081.45H1080.89H1080.32H1079.75H1079.18H1078.61H1078.03H1077.45H1076.88H1076.29H1075.71H1075.13H1074.54H1073.95H1073.36H1072.77H1072.17H1071.57H1070.97H1070.37H1069.77H1069.17H1068.56H1067.95H1067.34H1066.73H1066.11H1065.49H1064.87H1064.25H1063.63H1063.01H1062.38H1061.75H1061.12H1060.49H1059.85H1059.21H1058.58H1057.93H1057.29H1056.65H1056H1055.35H1054.7H1054.05H1053.39H1052.74H1052.08H1051.42H1050.75H1050.09H1049.42H1048.75H1048.08H1047.41H1046.73H1046.05H1045.37H1044.69H1044.01H1043.33H1042.64H1041.95H1041.26H1040.56H1039.87H1039.17H1038.47H1037.77H1037.07H1036.36H1035.65H1034.94H1034.23H1033.52H1032.8H1032.08H1031.36H1030.64H1029.92H1029.19H1028.46H1027.73H1027H1026.27H1025.53H1024.79H1024.05H1023.31H1022.56H1021.82H1021.07H1020.32H1019.56H1018.81H1018.05H1017.29H1016.53H1015.77H1015H1014.23H1013.46H1012.69H1011.92H1011.14H1010.37H1009.59H1008.8H1008.02H1007.23H1006.44H1005.65H1004.86H1004.07H1003.27H1002.47H1001.67H1000.87H1000.06H999.255H998.446H997.635H996.821H996.006H995.188H994.368H993.546H992.722H991.896H991.068H990.238H989.405H988.571H987.734H986.895H986.054H985.211H984.366H983.519H982.67H981.818H980.964H980.109H979.251H978.391H977.529H976.664H975.798H974.93H974.059H973.186H972.311H971.434H970.555H969.673H968.79H967.904H967.017H966.127H965.235H964.34H963.444H962.545H961.645H960.742H959.837H958.93H958.021H957.109H956.196H955.28H954.362H953.442H952.52H951.595H950.669H949.74H948.809H947.876H946.941H946.004H945.064H944.122H943.179H942.233H941.284H940.334H939.381H938.427H937.47H936.51H935.549H934.586H933.62H932.652H931.682H930.71H929.735H928.759H927.78H926.799H925.816H924.83H923.843H922.853H921.861H920.867H919.871H918.872H917.871H916.868H915.863H914.856H913.846H912.834H911.82H910.804H909.786H908.765H907.742H906.717H905.69H904.66H903.628H902.594H901.558H900.52H899.479H898.436H897.391H896.344H895.295H894.243H893.189H892.133H891.074H890.013H888.951H887.885H886.818H885.748H884.677H883.602H882.526H881.448H880.367H879.284H878.198H877.111H876.021H874.929H873.834H872.738H871.639H870.538H869.435H868.329H867.221H866.111H864.999H863.884H862.767H861.648H860.527H859.403H858.277H857.149H856.018H854.885H853.75H852.613H851.474H850.332H849.188H848.041H846.892H845.741H844.588H843.433H842.275H841.115H839.952H838.788H837.621H836.451H835.28H834.106H832.93H831.752H830.571H829.388H828.203H827.015H825.825H824.633H823.438H822.242H821.042H819.841H818.637H817.431H816.223H815.012H813.799H812.584H811.366H810.147H808.924H807.7H806.473H805.244H804.012H802.779H801.542H800.304H799.063H797.82H796.575H795.327H794.077H792.824H791.57H790.312H789.053H787.791H786.527H785.261H783.992H782.721H781.447H780.172H778.894H777.613H776.33H775.045H773.758H772.468H771.175H769.881H768.584H767.285H765.983H764.679H763.373H762.064H760.753H759.44H758.124H756.806H755.485H754.162H752.837H751.509H750.179H748.847H747.512H746.175H744.836H743.494H742.15H740.803H739.454H738.103H736.749H735.393H734.035H732.674H731.31H729.945H728.577H727.206H725.834H724.458H723.081H721.701H720.318H718.934H717.547H716.157H714.765H713.371H711.974H710.575H709.173H707.769H706.363H704.954H703.543H702.132H700.725H699.321H697.921H696.524H695.13H693.74H692.353H690.969H689.589H688.212H686.839H685.469H684.102H682.739H681.379H680.022H678.668H677.318H675.971H674.628H673.287H671.95H670.617H669.286H667.959H666.635H665.314H663.996H662.682H661.371H660.063H658.758H657.457H656.158H654.863H653.571H652.282H650.997H649.714H648.435H647.159H645.885H644.615H643.348H642.085H640.824H639.566H638.312H637.06H635.812H634.567H633.324H632.085H630.849H629.616H628.386H627.159H625.935H624.714H623.495H622.28H621.068H619.859H618.653H617.45H616.249H615.052H613.858H612.666H611.478H610.292H609.109H607.93H606.753H605.579H604.408H603.239H602.074H600.911H599.752H598.595H597.441H596.29H595.142H593.996H592.853H591.713H590.576H589.442H588.31H587.182H586.056H584.932H583.812H582.694H581.579H580.467H579.357H578.25H577.146H576.045H574.946H573.85H572.757H571.666H570.578H569.492H568.41H567.33H566.252H565.177H564.105H563.036H561.969H560.904H559.842H558.783H557.726H556.672H555.621H554.572H553.526H552.482H551.44H550.402H549.365H548.332H547.3H546.271H545.245H544.221H543.2H542.181H541.165H540.151H539.14H538.13H537.124H536.12H535.118H534.119H533.122H532.127H531.135H530.145H529.158H528.173H527.19H526.21H525.232H524.256H523.283H522.312H521.343H520.377H519.413H518.451H517.492H516.535H515.58H514.627H513.677H512.728H511.783H510.839H509.898H508.958H508.021H507.087H506.154H505.224H504.296H503.37H502.446H501.524H500.605H499.687H498.772H497.859H496.948H496.039H495.133H494.228H493.326H492.425H491.527H490.631H489.736H488.844H487.954H487.066H486.18H485.297H484.415H483.535H482.657H481.781H480.907H480.035H479.166H478.298H477.432H476.568H475.706H474.846H473.988H473.132H472.277H471.425H470.575H469.726H468.88H468.035H467.192H466.351H465.512H464.675H463.839H463.006H462.174H461.344H460.516H459.69H458.866H458.043H457.223H456.404H455.586H454.771H453.957H453.145H452.335H451.527H450.72H449.915H449.112H448.311H447.511H446.713H445.916H445.122H444.329H443.537H442.748H441.96H441.173H440.389H439.606H438.824H438.044H437.266H436.49H435.715H434.941H434.17H433.399H432.631H431.864H431.098H430.334H429.572H428.811H428.052H427.294H426.537H425.783H425.029H424.278H423.527H422.778H422.031H421.285H420.541H419.798H419.056H418.316H417.577H416.84H416.104H415.37H414.637H413.905H413.175H412.446H411.718H410.992H410.268H409.544H408.822H408.101H407.382H406.664H405.947H405.231H404.517H403.804H403.093H402.382H401.673H400.965H400.259H399.554H398.85H398.147H397.445H396.745H396.046H395.348H394.651H393.955H393.261H392.568H391.876H391.185H390.495H389.806H389.119H388.433H387.747H387.063H386.38H385.698H385.018H384.338H383.659H382.982H382.306H381.63H380.956H380.283H379.61H378.939H378.269H377.6H376.932H376.264H375.598H374.933H374.269H373.606H372.943H372.282H371.622H370.962H370.304H369.646H368.99H368.334H367.679H367.025H366.372H365.72H365.069H364.419H363.769H363.121H362.473H361.826H361.18H360.535H359.89H359.246H358.604H357.962H357.32H356.68H356.04H355.401H354.763H354.126H353.489H352.853H352.218H351.584H350.95H350.317H349.685H349.053H348.422H347.792H347.163H346.534H345.906H345.278H344.651H344.025H343.399H342.775H342.15H341.526H340.903H340.281H339.659H339.037H338.417H337.796H337.177H336.558H335.939H335.321H334.704H334.087H333.47H332.854H332.239H331.624H331.009H330.396H329.782H329.169H328.557H327.944H327.333H326.722H326.111H325.5H324.89H324.281H323.672H323.063H322.455H321.847H321.239H320.632H320.025H319.419H318.813H318.207H317.601H316.996H316.391H315.787H315.182H314.578H313.975H313.371H312.768H312.166H311.563H310.961H310.359H309.757H309.155H308.554H307.953H307.352H306.751H306.15H305.55H304.95H304.35H303.75H303.15H302.55H301.951H301.352H300.753H300.153H299.555H298.956H298.357H297.758H297.16H296.561H295.963H295.365H294.766H294.168H293.57H292.972H292.374H291.776H291.178H290.579H289.981H289.383H288.785H288.187H287.589H286.991H286.392H285.794H285.196H284.597H283.999H283.4H282.802H282.203H281.604H281.005H280.406H279.807H279.207H278.608H278.008H277.409H276.809H276.209H275.608H275.008H274.407H273.806H273.205H272.604H272.002H271.401H271.393Z" stroke="#4791CE" stroke-opacity="0.7" stroke-width="5.86286"/>
</svg>
