<svg width="64" height="64" viewBox="0 0 64 64" fill="none" xmlns="http://www.w3.org/2000/svg">
<circle cx="32" cy="32" r="32" fill="#1B1A1A"/>
<path d="M29 36.5L36.785 32L29 27.5V36.5ZM46.34 24.755C46.535 25.46 46.67 26.405 46.76 27.605C46.865 28.805 46.91 29.84 46.91 30.74L47 32C47 35.285 46.76 37.7 46.34 39.245C45.965 40.595 45.095 41.465 43.745 41.84C43.04 42.035 41.75 42.17 39.77 42.26C37.82 42.365 36.035 42.41 34.385 42.41L32 42.5C25.715 42.5 21.8 42.26 20.255 41.84C18.905 41.465 18.035 40.595 17.66 39.245C17.465 38.54 17.33 37.595 17.24 36.395C17.135 35.195 17.09 34.16 17.09 33.26L17 32C17 28.715 17.24 26.3 17.66 24.755C18.035 23.405 18.905 22.535 20.255 22.16C20.96 21.965 22.25 21.83 24.23 21.74C26.18 21.635 27.965 21.59 29.615 21.59L32 21.5C38.285 21.5 42.2 21.74 43.745 22.16C45.095 22.535 45.965 23.405 46.34 24.755Z" fill="#828282"/>
</svg>
