<svg width="16" height="16" viewBox="0 0 16 16" fill="none" xmlns="http://www.w3.org/2000/svg">
<path fill-rule="evenodd" clip-rule="evenodd" d="M4 2.85625C4 2.62916 4.10536 2.41137 4.29289 2.25079C4.48043 2.09021 4.73478 2 5 2H11C11.2652 2 11.5196 2.09021 11.7071 2.25079C11.8946 2.41137 12 2.62916 12 2.85625C12 3.08335 11.8946 3.30114 11.7071 3.46172C11.5196 3.62229 11.2652 3.71251 11 3.71251H9.465C9.64615 3.98068 9.78375 4.26875 9.874 4.56876H11C11.2652 4.56876 11.5196 4.65897 11.7071 4.81955C11.8946 4.98013 12 5.19792 12 5.42501C12 5.6521 11.8946 5.8699 11.7071 6.03047C11.5196 6.19105 11.2652 6.28126 11 6.28126H9.874C9.68662 6.90054 9.30073 7.46261 8.75991 7.90398C8.21909 8.34534 7.5449 8.64841 6.8135 8.77895L9.832 12.6565C9.90757 12.75 9.96063 12.8554 9.98809 12.9667C10.0155 13.0779 10.0169 13.1928 9.99193 13.3044C9.96701 13.4161 9.91636 13.5224 9.84293 13.6172C9.76951 13.7119 9.67478 13.7932 9.56428 13.8563C9.45378 13.9193 9.32972 13.9629 9.19934 13.9845C9.06895 14.006 8.93486 14.0051 8.80488 13.9818C8.6749 13.9586 8.55164 13.9133 8.44229 13.8488C8.33295 13.7843 8.2397 13.7018 8.168 13.6061L4.168 8.46856C4.06766 8.33962 4.01006 8.18977 4.00134 8.035C3.99263 7.88023 4.03313 7.72633 4.11852 7.58972C4.20392 7.45311 4.331 7.33889 4.48624 7.25926C4.64147 7.17962 4.81904 7.13755 5 7.13752H6C6.74 7.13752 7.3865 6.7933 7.7325 6.28126H5C4.73478 6.28126 4.48043 6.19105 4.29289 6.03047C4.10536 5.8699 4 5.6521 4 5.42501C4 5.19792 4.10536 4.98013 4.29289 4.81955C4.48043 4.65897 4.73478 4.56876 5 4.56876H7.7325C7.557 4.30831 7.30447 4.09204 7.00033 3.94173C6.69619 3.79141 6.35117 3.71235 6 3.71251H5C4.73478 3.71251 4.48043 3.62229 4.29289 3.46172C4.10536 3.30114 4 3.08335 4 2.85625Z" fill="white"/>
</svg>
