<svg width="35" height="34" viewBox="0 0 35 34" fill="none" xmlns="http://www.w3.org/2000/svg">
<rect width="34.3855" height="34" transform="translate(0.60321)" fill="#231F1E"/>
<path d="M14.2141 4.25C16.684 4.25 19.0528 5.22016 20.7992 6.94706C22.5457 8.67396 23.5269 11.0161 23.5269 13.4583C23.5269 15.7392 22.6816 17.8358 21.2918 19.4508L21.6787 19.8333H22.8105L29.9741 26.9167L27.8251 29.0417L20.6614 21.9583V20.8392L20.2746 20.4567C18.5847 21.8829 16.4359 22.6665 14.2141 22.6667C11.7442 22.6667 9.37551 21.6965 7.62903 19.9696C5.88256 18.2427 4.9014 15.9005 4.9014 13.4583C4.9014 11.0161 5.88256 8.67396 7.62903 6.94706C9.37551 5.22016 11.7442 4.25 14.2141 4.25ZM14.2141 7.08333C10.6323 7.08333 7.76686 9.91667 7.76686 13.4583C7.76686 17 10.6323 19.8333 14.2141 19.8333C17.796 19.8333 20.6614 17 20.6614 13.4583C20.6614 9.91667 17.796 7.08333 14.2141 7.08333Z" fill="#FFF6F2"/>
</svg>
