<svg width="100" height="20" viewBox="0 0 100 20" fill="none" xmlns="http://www.w3.org/2000/svg">
<rect width="100" height="20" rx="10" fill="#767678" fill-opacity="0.3"/>
<path d="M70.0787 12.825L67.1181 14.7167L67.8976 11.15L65.2835 8.75002L68.7323 8.44169L70.0787 5.07502L71.4252 8.44169L74.874 8.75002L72.2598 11.15L73.0394 14.7167M77.9527 7.70002L72.2913 7.19169L70.0787 1.66669L67.8661 7.19169L62.2047 7.70002L66.4961 11.6417L65.2126 17.5L70.0787 14.3917L74.9449 17.5L73.6535 11.6417L77.9527 7.70002Z" fill="#231F1E"/>
<path d="M13.3858 14.3917L18.2519 17.5L16.9606 11.6417L21.2598 7.70002L15.5984 7.19169L13.3858 1.66669L11.1732 7.19169L5.51178 7.70002L9.81099 11.6417L8.51965 17.5L13.3858 14.3917Z" fill="#FFD700"/>
<path d="M32.2834 14.3917L37.1496 17.5L35.8582 11.6417L40.1575 7.70002L34.496 7.19169L32.2834 1.66669L30.0708 7.19169L24.4094 7.70002L28.7086 11.6417L27.4173 17.5L32.2834 14.3917Z" fill="#FFD700"/>
<path d="M51.1811 14.3917L56.0472 17.5L54.7559 11.6417L59.0551 7.70002L53.3937 7.19169L51.1811 1.66669L48.9685 7.19169L43.3071 7.70002L47.6063 11.6417L46.3149 17.5L51.1811 14.3917Z" fill="#FFD700"/>
<path d="M92.3209 7.2146L87.4016 12.2896L82.4823 7.2146C82.3944 7.12375 82.2764 7.07288 82.1536 7.07288C82.0307 7.07288 81.9127 7.12375 81.8248 7.2146C81.7823 7.25873 81.7485 7.3114 81.7254 7.36954C81.7023 7.42767 81.6904 7.49009 81.6904 7.55314C81.6904 7.6162 81.7023 7.67862 81.7254 7.73675C81.7485 7.79488 81.7823 7.84756 81.8248 7.89168L87.0581 13.2917C87.15 13.3865 87.2733 13.4396 87.4016 13.4396C87.5299 13.4396 87.6532 13.3865 87.7451 13.2917L92.9784 7.89273C93.0212 7.84856 93.0553 7.79576 93.0786 7.73744C93.1018 7.67911 93.1138 7.61645 93.1138 7.55314C93.1138 7.48984 93.1018 7.42717 93.0786 7.36885C93.0553 7.31052 93.0212 7.25772 92.9784 7.21356C92.8905 7.1227 92.7725 7.07184 92.6496 7.07184C92.5268 7.07184 92.4088 7.1227 92.3209 7.21356V7.2146Z" fill="black"/>
</svg>
