<svg width="100" height="20" viewBox="0 0 100 20" fill="none" xmlns="http://www.w3.org/2000/svg">
<rect width="100" height="20" rx="10" fill="#767678" fill-opacity="0.3"/>
<path d="M70.0787 12.825L67.1181 14.7166L67.8976 11.15L65.2835 8.74996L68.7323 8.44163L70.0787 5.07496L71.4252 8.44163L74.874 8.74996L72.2598 11.15L73.0394 14.7166M77.9527 7.69996L72.2913 7.19163L70.0787 1.66663L67.8661 7.19163L62.2047 7.69996L66.4961 11.6416L65.2126 17.5L70.0787 14.3916L74.9449 17.5L73.6535 11.6416L77.9527 7.69996Z" fill="#231F1E"/>
<path d="M13.3858 14.3916L18.2519 17.5L16.9606 11.6416L21.2598 7.69996L15.5984 7.19163L13.3858 1.66663L11.1732 7.19163L5.51178 7.69996L9.81099 11.6416L8.51965 17.5L13.3858 14.3916Z" fill="#FFD700"/>
<path d="M32.2834 14.3916L37.1496 17.5L35.8582 11.6416L40.1575 7.69996L34.496 7.19163L32.2834 1.66663L30.0708 7.19163L24.4094 7.69996L28.7086 11.6416L27.4173 17.5L32.2834 14.3916Z" fill="#FFD700"/>
<path d="M51.1811 14.3916L56.0472 17.5L54.7559 11.6416L59.0551 7.69996L53.3937 7.19163L51.1811 1.66663L48.9685 7.19163L43.3071 7.69996L47.6063 11.6416L46.3149 17.5L51.1811 14.3916Z" fill="#FFD700"/>
<path d="M92.3209 7.21454L87.4016 12.2895L82.4823 7.21454C82.3944 7.12368 82.2764 7.07282 82.1536 7.07282C82.0307 7.07282 81.9127 7.12368 81.8248 7.21454C81.7823 7.25867 81.7485 7.31134 81.7254 7.36947C81.7023 7.42761 81.6904 7.49003 81.6904 7.55308C81.6904 7.61614 81.7023 7.67856 81.7254 7.73669C81.7485 7.79482 81.7823 7.84749 81.8248 7.89162L87.0581 13.2916C87.15 13.3864 87.2733 13.4395 87.4016 13.4395C87.5299 13.4395 87.6532 13.3864 87.7451 13.2916L92.9784 7.89267C93.0212 7.8485 93.0553 7.7957 93.0786 7.73738C93.1018 7.67905 93.1138 7.61639 93.1138 7.55308C93.1138 7.48978 93.1018 7.42711 93.0786 7.36879C93.0553 7.31046 93.0212 7.25766 92.9784 7.2135C92.8905 7.12264 92.7725 7.07178 92.6496 7.07178C92.5268 7.07178 92.4088 7.12264 92.3209 7.2135V7.21454Z" fill="black"/>
</svg>
