<svg width="24" height="24" viewBox="0 0 24 24" fill="none" xmlns="http://www.w3.org/2000/svg">
<g clip-path="url(#clip0_1_435)">
<path d="M15.6 21.6H16.8V24H0V21.6H1.2V2.4C1.2 1.08 2.28 0 3.6 0H13.2C13.8365 0 14.447 0.252856 14.8971 0.702944C15.3471 1.15303 15.6 1.76348 15.6 2.4V21.6ZM3.6 2.4V9.6H13.2V2.4H3.6ZM15.6 12H16.8C17.4365 12 18.047 12.2529 18.4971 12.7029C18.9471 13.153 19.2 13.7635 19.2 14.4V18C19.2 18.3183 19.3264 18.6235 19.5515 18.8485C19.7765 19.0736 20.0817 19.2 20.4 19.2C20.7183 19.2 21.0235 19.0736 21.2485 18.8485C21.4736 18.6235 21.6 18.3183 21.6 18V12L19.2 9.6V7.2L16.8 4.8L18 3.6L24 9.6V18C24 18.9548 23.6207 19.8705 22.9456 20.5456C22.2705 21.2207 21.3548 21.6 20.4 21.6C19.4452 21.6 18.5295 21.2207 17.8544 20.5456C17.1793 19.8705 16.8 18.9548 16.8 18V14.4H15.6V12Z" fill="#767678"/>
</g>
<defs>
<clipPath id="clip0_1_435">
<rect width="24" height="24" fill="white"/>
</clipPath>
</defs>
</svg>
